<svg width="17" height="13" viewBox="0 0 17 13" fill="none" xmlns="http://www.w3.org/2000/svg">
<path d="M16.6774 4.33516C16.8069 4.23223 16.9995 4.32852 16.9995 4.49121V11.2812C16.9995 12.1611 16.2856 12.875 15.4058 12.875H1.59326C0.713379 12.875 -0.000488281 12.1611 -0.000488281 11.2812V4.49453C-0.000488281 4.32852 0.18877 4.23555 0.321582 4.33848C1.06533 4.91621 2.05147 5.65 5.43818 8.11035C6.13877 8.62168 7.3208 9.69746 8.49951 9.69082C9.68486 9.70078 10.8901 8.60176 11.5642 8.11035C14.9509 5.65 15.9337 4.91289 16.6774 4.33516ZM8.49951 8.625C9.26982 8.63828 10.3788 7.65547 10.9366 7.25039C15.3427 4.05293 15.678 3.77402 16.694 2.97715C16.8866 2.82773 16.9995 2.59531 16.9995 2.34961V1.71875C16.9995 0.838867 16.2856 0.125 15.4058 0.125H1.59326C0.713379 0.125 -0.000488281 0.838867 -0.000488281 1.71875V2.34961C-0.000488281 2.59531 0.112402 2.82441 0.30498 2.97715C1.321 3.7707 1.65635 4.05293 6.0624 7.25039C6.62021 7.65547 7.7292 8.63828 8.49951 8.625Z" fill="#8F908A"/>
</svg>
