<svg width="10" height="17" viewBox="0 0 10 17" fill="none" xmlns="http://www.w3.org/2000/svg">
    <path d="M9.12943 8.80347C8.92194 9.10704 8.8182 9.30942 8.71446 9.5118C8.61071 9.91656 8.50697 10.4225 8.19574 10.7261C7.98826 11.0297 7.67703 11.232 7.46954 11.5356C7.3658 11.6368 7.26206 11.6368 7.15832 11.5356C6.53586 11.0297 5.80966 10.8273 4.97972 11.0297C4.77223 11.0297 4.66849 11.0297 4.56475 11.0297C3.73481 10.8273 3.00861 11.0297 2.38615 11.5356C2.28241 11.6368 2.17867 11.6368 2.07492 11.5356L1.97118 11.4344C1.76369 11.1308 1.55621 10.9285 1.34872 10.6249C1.14124 10.4225 1.0375 10.0178 0.933753 9.71418C0.83001 9.5118 0.726268 9.30942 0.622525 9.10704L0.518782 9.00585H0.415039V9.10704C0.415039 9.41061 0.518782 9.61299 0.518782 9.81537C0.518782 10.3213 0.518782 10.8273 0.518782 11.3332C0.415039 11.9404 0.415039 12.6487 0.415039 13.357C0.415039 13.7618 0.518782 14.1666 0.622525 14.5713L0.726267 14.6725L0.83001 14.5713C0.933753 14.3689 1.0375 14.1666 1.14124 13.9642C1.14124 13.863 1.24498 13.863 1.24498 13.863V13.9642C1.14124 14.4701 1.14124 14.8749 1.14124 15.3808C1.14124 15.482 1.24498 15.5832 1.24498 15.6844C1.55621 16.0892 1.97118 16.3928 2.38615 16.6963H2.48989V16.5951C2.48989 16.4939 2.48989 16.2916 2.48989 16.1904C2.48989 15.7856 2.48989 15.482 2.48989 15.1785C2.48989 15.1785 2.59364 15.0773 2.59364 14.9761C2.69738 15.0773 2.69738 15.0773 2.69738 15.1785C2.80112 15.6844 2.90486 16.1904 3.11235 16.4939C3.11235 16.5951 3.21609 16.7975 3.42358 16.8987C3.63106 16.8987 3.73481 16.9999 3.94229 16.9999C4.56475 16.9999 5.08346 16.9999 5.70592 16.9999C6.01715 16.9999 6.22463 16.8987 6.43212 16.5951C6.74335 16.0892 6.95083 15.5832 6.95083 14.9761C6.95083 14.8749 6.95083 14.8749 6.95083 14.7737C7.05457 14.7737 7.05457 14.8749 7.05457 14.8749C7.15832 15.2797 7.26206 15.7856 7.15832 16.2916V16.3928C7.26206 16.3928 7.3658 16.3928 7.3658 16.3928C7.3658 16.3928 7.3658 16.2916 7.46954 16.2916C7.78077 16.1904 8.092 15.8868 8.29949 15.5832C8.29949 15.482 8.40323 15.3808 8.40323 15.2797C8.50697 14.7737 8.50697 14.3689 8.29949 13.863V13.7618V13.6606C8.29949 13.7618 8.40323 13.7618 8.40323 13.7618C8.50697 13.9642 8.61071 14.1666 8.71446 14.3689L8.8182 14.4701L8.92194 14.3689C9.23317 13.5594 9.12943 12.8511 9.12943 12.0416C9.12943 11.6368 9.02568 11.3332 9.02568 10.9285C9.02568 10.2201 9.12943 9.61299 9.12943 9.00585C9.23317 8.90466 9.12943 8.90466 9.12943 8.80347ZM6.84709 12.7499C6.74335 12.7499 6.74335 12.8511 6.6396 12.9523C6.32838 13.2558 6.01715 13.2558 5.70592 13.2558C5.39469 13.2558 5.1872 13.2558 4.87598 13.2558C4.56475 13.2558 4.25352 13.2558 3.83855 13.1547C3.52732 13.1547 3.11235 13.0535 3.00861 12.5475C2.90487 12.4463 2.90486 12.3451 3.11235 12.3451C3.52732 12.3451 3.94229 12.2439 4.35726 12.1428C4.46101 12.1428 4.66849 12.0416 4.77223 11.9404C4.87598 11.8392 4.97972 11.8392 5.08346 11.9404C5.29095 12.1428 5.49843 12.2439 5.80966 12.2439C6.12089 12.3451 6.43212 12.3451 6.74335 12.4463L6.84709 12.5475C6.95083 12.6487 6.84709 12.7499 6.84709 12.7499Z" fill="#8F908A"/>
    <path d="M9.9593 3.84524C9.9593 3.1369 9.64807 2.42857 9.2331 1.82143C8.92187 1.51786 8.61065 1.21429 8.29942 1.0119C8.19567 1.0119 8.19568 0.910714 8.19568 0.910714H8.29942C8.40316 0.910714 8.40316 0.910714 8.5069 0.910714H8.61065C8.5069 0.910714 8.5069 0.809524 8.5069 0.809524C8.40316 0.809524 8.40316 0.809524 8.40316 0.809524C8.09193 0.708333 7.67696 0.505952 7.36573 0.404762C7.15825 0.303571 6.84702 0.202381 6.53579 0.202381C5.91334 0.202381 5.39462 0.202381 4.87591 0.303571C4.66842 0.303571 4.56468 0.404762 4.35719 0.404762H4.25345L4.35719 0.303571C4.35719 0.202381 4.46094 0.202381 4.66842 0.10119V0H4.56468H4.46094C4.25345 0 4.04597 0 3.73474 0.10119C3.00854 0.202381 2.38608 0.404762 1.86737 0.809524C1.34866 1.21429 0.933685 1.72024 0.829942 2.42857C0.829942 2.52976 0.829942 2.63095 0.726199 2.63095C0.518714 2.73214 0.414971 2.83333 0.311228 3.03571C0.103743 3.33929 0 3.64286 0 4.04762C0 5.05952 2.93719e-07 5.97024 0.207486 6.98214C0.207486 7.08333 0.207486 7.08333 0.311228 7.08333C0.414971 6.98214 0.622457 6.98214 0.726199 6.88095C0.933685 6.77976 1.14117 6.47619 1.14117 6.27381C1.34866 5.86905 1.4524 5.56548 1.4524 5.2619C1.55614 4.85714 1.76363 4.55357 1.86737 4.25C2.07485 4.04762 2.1786 4.04762 2.48983 4.04762C2.69731 4.14881 2.9048 4.25 3.11228 4.25C3.73474 4.35119 4.25345 4.35119 4.87591 4.25C5.29088 4.14881 5.70585 4.04762 6.01708 3.74405C6.01708 3.64286 6.12082 3.64286 6.22456 3.54167C6.22456 3.64286 6.22456 3.74405 6.12082 3.84524C6.12082 4.04762 6.01708 4.14881 5.91333 4.25V4.35119H6.01708C6.43205 4.25 6.84702 4.25 7.15825 4.04762C7.57322 3.84524 7.88445 3.64286 8.19568 3.44048C8.29942 3.33929 8.29942 3.33929 8.40316 3.2381V3.33929C8.19568 3.64286 8.09193 3.84524 7.98819 4.14881C7.88445 4.35119 7.88445 4.35119 7.98819 4.55357C8.09193 4.65476 8.09193 4.75595 8.19568 4.95833C8.29942 5.16071 8.29942 5.46429 8.40316 5.76786C8.5069 6.27381 8.71439 6.77976 9.2331 6.98214C9.44059 7.08333 9.54433 7.08333 9.75182 6.77976C9.9593 5.76786 10.063 4.85714 9.9593 3.84524Z" fill="#8F908A"/>
</svg>
