<svg width="13" height="17" viewBox="0 0 13 17" fill="none" xmlns="http://www.w3.org/2000/svg">
<path d="M5.71984 16.657C0.895488 9.66314 0 8.94535 0 6.375C0 2.85417 2.85417 0 6.375 0C9.89583 0 12.75 2.85417 12.75 6.375C12.75 8.94535 11.8545 9.66314 7.03016 16.657C6.71357 17.1144 6.03639 17.1143 5.71984 16.657ZM6.375 9.03125C7.84201 9.03125 9.03125 7.84201 9.03125 6.375C9.03125 4.90799 7.84201 3.71875 6.375 3.71875C4.90799 3.71875 3.71875 4.90799 3.71875 6.375C3.71875 7.84201 4.90799 9.03125 6.375 9.03125Z" fill="#8F908A"/>
</svg>
