<svg width="17" height="17" viewBox="0 0 17 17" fill="none" xmlns="http://www.w3.org/2000/svg">
<path d="M16.5149 12.0127L12.7962 10.4189C12.6373 10.3512 12.4607 10.337 12.2931 10.3783C12.1254 10.4196 11.9757 10.5143 11.8665 10.648L10.2196 12.6602C7.63497 11.4415 5.55495 9.36151 4.33633 6.7769L6.34844 5.13003C6.48247 5.02102 6.57734 4.8713 6.61868 4.70355C6.66001 4.5358 6.64557 4.35915 6.57754 4.20034L4.98379 0.481598C4.90912 0.310405 4.77706 0.170633 4.61037 0.086381C4.44369 0.00212925 4.25283 -0.0213206 4.0707 0.0200749L0.617578 0.816949C0.44199 0.857496 0.285329 0.956361 0.173166 1.09741C0.0610025 1.23846 -4.04484e-05 1.41336 2.01085e-08 1.59357C2.01085e-08 10.1102 6.90293 16.9998 15.4062 16.9998C15.5865 16.9999 15.7615 16.9389 15.9026 16.8267C16.0437 16.7146 16.1426 16.5579 16.1832 16.3822L16.9801 12.9291C17.0212 12.7461 16.9973 12.5545 16.9124 12.3872C16.8275 12.2199 16.6869 12.0875 16.5149 12.0127Z" fill="#8F908A"/>
</svg>
