<svg xmlns="http://www.w3.org/2000/svg" width="20" height="20" viewBox="0 0 20 20" fill="none">
    <path d="M15.8332 2.49996L10.8332 7.49996L12.4998 9.16663L18.3332 3.33329V2.49996H15.8332ZM9.99984 10.4166C9.88933 10.4166 9.78335 10.3727 9.70521 10.2946C9.62707 10.2164 9.58317 10.1105 9.58317 9.99996C9.58317 9.88945 9.62707 9.78347 9.70521 9.70533C9.78335 9.62719 9.88933 9.58329 9.99984 9.58329C10.1103 9.58329 10.2163 9.62719 10.2945 9.70533C10.3726 9.78347 10.4165 9.88945 10.4165 9.99996C10.4165 10.1105 10.3726 10.2164 10.2945 10.2946C10.2163 10.3727 10.1103 10.4166 9.99984 10.4166ZM4.99984 16.6666C4.55781 16.6666 4.13389 16.491 3.82133 16.1785C3.50877 15.8659 3.33317 15.442 3.33317 15C3.33317 14.5579 3.50877 14.134 3.82133 13.8214C4.13389 13.5089 4.55781 13.3333 4.99984 13.3333C5.44186 13.3333 5.86579 13.5089 6.17835 13.8214C6.49091 14.134 6.6665 14.5579 6.6665 15C6.6665 15.442 6.49091 15.8659 6.17835 16.1785C5.86579 16.491 5.44186 16.6666 4.99984 16.6666ZM4.99984 6.66663C4.55781 6.66663 4.13389 6.49103 3.82133 6.17847C3.50877 5.86591 3.33317 5.44199 3.33317 4.99996C3.33317 4.55793 3.50877 4.13401 3.82133 3.82145C4.13389 3.50889 4.55781 3.33329 4.99984 3.33329C5.44186 3.33329 5.86579 3.50889 6.17835 3.82145C6.49091 4.13401 6.6665 4.55793 6.6665 4.99996C6.6665 5.44199 6.49091 5.86591 6.17835 6.17847C5.86579 6.49103 5.44186 6.66663 4.99984 6.66663ZM8.03317 6.36663C8.22484 5.94996 8.33317 5.49163 8.33317 4.99996C8.33317 4.1159 7.98198 3.26806 7.35686 2.64294C6.73174 2.01782 5.88389 1.66663 4.99984 1.66663C4.11578 1.66663 3.26794 2.01782 2.64281 2.64294C2.01769 3.26806 1.6665 4.1159 1.6665 4.99996C1.6665 5.88401 2.01769 6.73186 2.64281 7.35698C3.26794 7.9821 4.11578 8.33329 4.99984 8.33329C5.4915 8.33329 5.94984 8.22496 6.3665 8.03329L8.33317 9.99996L6.3665 11.9666C5.94984 11.775 5.4915 11.6666 4.99984 11.6666C4.11578 11.6666 3.26794 12.0178 2.64281 12.6429C2.01769 13.2681 1.6665 14.1159 1.6665 15C1.6665 15.884 2.01769 16.7319 2.64281 17.357C3.26794 17.9821 4.11578 18.3333 4.99984 18.3333C5.88389 18.3333 6.73174 17.9821 7.35686 17.357C7.98198 16.7319 8.33317 15.884 8.33317 15C8.33317 14.5083 8.22484 14.05 8.03317 13.6333L9.99984 11.6666L15.8332 17.5H18.3332V16.6666L8.03317 6.36663Z" fill="#8F908A"/>
</svg>