<svg width="13" height="15" viewBox="0 0 13 15" fill="none" xmlns="http://www.w3.org/2000/svg">
<path id="Vector" d="M13 12.4121C13 13.1217 12.7884 13.7305 12.3652 14.2383C11.9421 14.7461 11.4326 15 10.8367 15H2.16328C1.56745 15 1.05794 14.7461 0.634766 14.2383C0.211589 13.7305 0 13.1217 0 12.4121C0 11.8587 0.028776 11.3363 0.0863281 10.8447C0.14388 10.3532 0.250521 9.8584 0.40625 9.36035C0.561979 8.8623 0.760026 8.43587 1.00039 8.08105C1.24076 7.72624 1.55898 7.43652 1.95508 7.21191C2.35117 6.9873 2.80651 6.875 3.32109 6.875C4.20807 7.70833 5.26771 8.125 6.5 8.125C7.73229 8.125 8.79193 7.70833 9.67891 6.875C10.1935 6.875 10.6488 6.9873 11.0449 7.21191C11.441 7.43652 11.7592 7.72624 11.9996 8.08105C12.24 8.43587 12.438 8.8623 12.5938 9.36035C12.7495 9.8584 12.8561 10.3532 12.9137 10.8447C12.9712 11.3363 13 11.8587 13 12.4121ZM10.4 3.75C10.4 4.78516 10.0191 5.66895 9.25742 6.40137C8.4957 7.13379 7.57656 7.5 6.5 7.5C5.42344 7.5 4.5043 7.13379 3.74258 6.40137C2.98086 5.66895 2.6 4.78516 2.6 3.75C2.6 2.71484 2.98086 1.83105 3.74258 1.09863C4.5043 0.366211 5.42344 0 6.5 0C7.57656 0 8.4957 0.366211 9.25742 1.09863C10.0191 1.83105 10.4 2.71484 10.4 3.75Z" fill="#8F908A"/>
</svg>
